<?xml version="1.0" encoding="UTF-8" standalone="no"?>
<!DOCTYPE svg PUBLIC "-//W3C//DTD SVG 1.1//EN"
 "http://www.w3.org/Graphics/SVG/1.1/DTD/svg11.dtd">
<!-- Generated by graphviz version 2.40.1 (20161225.0304)
 -->
<!-- Title: dependencies Pages: 1 -->
<svg width="1658pt" height="284pt"
 viewBox="0.00 0.00 1658.00 284.00" xmlns="http://www.w3.org/2000/svg" xmlns:xlink="http://www.w3.org/1999/xlink">
<g id="graph0" class="graph" transform="scale(1 1) rotate(0) translate(4 280)">
<title>dependencies</title>
<polygon fill="#ffffff" stroke="transparent" points="-4,4 -4,-280 1654,-280 1654,4 -4,4"/>
<text text-anchor="start" x="804.0091" y="-42.4" font-family="sans-serif" font-weight="bold" font-size="14.00" fill="#000000">Legend</text>
<polygon fill="#ffffb3" stroke="transparent" points="591,-10 591,-30 611,-30 611,-10 591,-10"/>
<text text-anchor="start" x="614.629" y="-15.4" font-family="sans-serif" font-size="14.00" fill="#000000"> &#160;Declarations</text>
<polygon fill="#8dd3c7" stroke="transparent" points="704,-10 704,-30 724,-30 724,-10 704,-10"/>
<text text-anchor="start" x="727.7251" y="-15.4" font-family="sans-serif" font-size="14.00" fill="#000000"> &#160;Module</text>
<polygon fill="#80b1d3" stroke="transparent" points="790,-10 790,-30 810,-30 810,-10 790,-10"/>
<text text-anchor="start" x="813.7812" y="-15.4" font-family="sans-serif" font-size="14.00" fill="#000000"> &#160;Bootstrap</text>
<polygon fill="#fdb462" stroke="transparent" points="887,-10 887,-30 907,-30 907,-10 887,-10"/>
<text text-anchor="start" x="910.6732" y="-15.4" font-family="sans-serif" font-size="14.00" fill="#000000"> &#160;Providers</text>
<polygon fill="#fb8072" stroke="transparent" points="983,-10 983,-30 1003,-30 1003,-10 983,-10"/>
<text text-anchor="start" x="1006.7258" y="-15.4" font-family="sans-serif" font-size="14.00" fill="#000000"> &#160;Exports</text>
<g id="clust1" class="cluster">
<title>cluster_AppModule</title>
<polygon fill="none" stroke="#000000" stroke-dasharray="1,5" points="8,-70 8,-268 1642,-268 1642,-70 8,-70"/>
</g>
<g id="clust2" class="cluster">
<title>cluster_AppModule_declarations</title>
<polygon fill="none" stroke="#000000" points="154,-78 154,-130 1634,-130 1634,-78 154,-78"/>
</g>
<g id="clust15" class="cluster">
<title>cluster_AppModule_bootstrap</title>
<polygon fill="none" stroke="#000000" points="703,-208 703,-260 827,-260 827,-208 703,-208"/>
</g>
<g id="clust16" class="cluster">
<title>cluster_AppModule_providers</title>
<polygon fill="none" stroke="#000000" points="16,-78 16,-130 146,-130 146,-78 16,-78"/>
</g>
<!-- AppComponent -->
<g id="node1" class="node">
<title>AppComponent</title>
<polygon fill="#ffffb3" stroke="#000000" points="1625.9399,-122 1520.0601,-122 1520.0601,-86 1625.9399,-86 1625.9399,-122"/>
<text text-anchor="middle" x="1573" y="-99.8" font-family="Times,serif" font-size="14.00" fill="#000000">AppComponent</text>
</g>
<!-- AppModule -->
<g id="node11" class="node">
<title>AppModule</title>
<polygon fill="#8dd3c7" stroke="#000000" points="806.6571,-187 803.6571,-191 782.6571,-191 779.6571,-187 723.3429,-187 723.3429,-151 806.6571,-151 806.6571,-187"/>
<text text-anchor="middle" x="765" y="-164.8" font-family="Times,serif" font-size="14.00" fill="#000000">AppModule</text>
</g>
<!-- AppComponent&#45;&gt;AppModule -->
<g id="edge1" class="edge">
<title>AppComponent&#45;&gt;AppModule</title>
<path fill="none" stroke="#000000" d="M1573,-122.2479C1573,-145.0179 1573,-181 1573,-181 1573,-181 816.7401,-181 816.7401,-181"/>
<polygon fill="#000000" stroke="#000000" points="816.7402,-177.5001 806.7401,-181 816.7401,-184.5001 816.7402,-177.5001"/>
</g>
<!-- ConfirmationDialogComponent -->
<g id="node2" class="node">
<title>ConfirmationDialogComponent</title>
<polygon fill="#ffffb3" stroke="#000000" points="1502.3696,-122 1307.6304,-122 1307.6304,-86 1502.3696,-86 1502.3696,-122"/>
<text text-anchor="middle" x="1405" y="-99.8" font-family="Times,serif" font-size="14.00" fill="#000000">ConfirmationDialogComponent</text>
</g>
<!-- ConfirmationDialogComponent&#45;&gt;AppModule -->
<g id="edge2" class="edge">
<title>ConfirmationDialogComponent&#45;&gt;AppModule</title>
<path fill="none" stroke="#000000" d="M1405,-122.2843C1405,-143.3211 1405,-175 1405,-175 1405,-175 816.9922,-175 816.9922,-175"/>
<polygon fill="#000000" stroke="#000000" points="816.9922,-171.5001 806.9922,-175 816.9922,-178.5001 816.9922,-171.5001"/>
</g>
<!-- CreatePartnerComponent -->
<g id="node3" class="node">
<title>CreatePartnerComponent</title>
<polygon fill="#ffffb3" stroke="#000000" points="1289.2879,-122 1130.7121,-122 1130.7121,-86 1289.2879,-86 1289.2879,-122"/>
<text text-anchor="middle" x="1210" y="-99.8" font-family="Times,serif" font-size="14.00" fill="#000000">CreatePartnerComponent</text>
</g>
<!-- CreatePartnerComponent&#45;&gt;AppModule -->
<g id="edge3" class="edge">
<title>CreatePartnerComponent&#45;&gt;AppModule</title>
<path fill="none" stroke="#000000" d="M1210,-122.1061C1210,-141.3391 1210,-169 1210,-169 1210,-169 816.8645,-169 816.8645,-169"/>
<polygon fill="#000000" stroke="#000000" points="816.8646,-165.5001 806.8645,-169 816.8645,-172.5001 816.8646,-165.5001"/>
</g>
<!-- HomeComponent -->
<g id="node4" class="node">
<title>HomeComponent</title>
<polygon fill="#ffffb3" stroke="#000000" points="1112.5451,-122 997.4549,-122 997.4549,-86 1112.5451,-86 1112.5451,-122"/>
<text text-anchor="middle" x="1055" y="-99.8" font-family="Times,serif" font-size="14.00" fill="#000000">HomeComponent</text>
</g>
<!-- HomeComponent&#45;&gt;AppModule -->
<g id="edge4" class="edge">
<title>HomeComponent&#45;&gt;AppModule</title>
<path fill="none" stroke="#000000" d="M1055,-122.0225C1055,-139.3734 1055,-163 1055,-163 1055,-163 816.8588,-163 816.8588,-163"/>
<polygon fill="#000000" stroke="#000000" points="816.8588,-159.5001 806.8588,-163 816.8587,-166.5001 816.8588,-159.5001"/>
</g>
<!-- MenuComponent -->
<g id="node5" class="node">
<title>MenuComponent</title>
<polygon fill="#ffffb3" stroke="#000000" points="978.9916,-122 865.0084,-122 865.0084,-86 978.9916,-86 978.9916,-122"/>
<text text-anchor="middle" x="922" y="-99.8" font-family="Times,serif" font-size="14.00" fill="#000000">MenuComponent</text>
</g>
<!-- MenuComponent&#45;&gt;AppModule -->
<g id="edge5" class="edge">
<title>MenuComponent&#45;&gt;AppModule</title>
<path fill="none" stroke="#000000" d="M922,-122.2396C922,-137.5706 922,-157 922,-157 922,-157 816.6609,-157 816.6609,-157"/>
<polygon fill="#000000" stroke="#000000" points="816.661,-153.5001 806.6609,-157 816.6609,-160.5001 816.661,-153.5001"/>
</g>
<!-- NavigationBarComponent -->
<g id="node6" class="node">
<title>NavigationBarComponent</title>
<polygon fill="#ffffb3" stroke="#000000" points="846.752,-122 683.248,-122 683.248,-86 846.752,-86 846.752,-122"/>
<text text-anchor="middle" x="765" y="-99.8" font-family="Times,serif" font-size="14.00" fill="#000000">NavigationBarComponent</text>
</g>
<!-- NavigationBarComponent&#45;&gt;AppModule -->
<g id="edge6" class="edge">
<title>NavigationBarComponent&#45;&gt;AppModule</title>
<path fill="none" stroke="#000000" d="M765,-122.1061C765,-122.1061 765,-140.991 765,-140.991"/>
<polygon fill="#000000" stroke="#000000" points="761.5001,-140.9909 765,-150.991 768.5001,-140.991 761.5001,-140.9909"/>
</g>
<!-- PartnerComponent -->
<g id="node7" class="node">
<title>PartnerComponent</title>
<polygon fill="#ffffb3" stroke="#000000" points="664.7562,-122 543.2438,-122 543.2438,-86 664.7562,-86 664.7562,-122"/>
<text text-anchor="middle" x="604" y="-99.8" font-family="Times,serif" font-size="14.00" fill="#000000">PartnerComponent</text>
</g>
<!-- PartnerComponent&#45;&gt;AppModule -->
<g id="edge7" class="edge">
<title>PartnerComponent&#45;&gt;AppModule</title>
<path fill="none" stroke="#000000" d="M604,-122.2396C604,-137.5706 604,-157 604,-157 604,-157 713.1194,-157 713.1194,-157"/>
<polygon fill="#000000" stroke="#000000" points="713.1195,-160.5001 723.1194,-157 713.1194,-153.5001 713.1195,-160.5001"/>
</g>
<!-- PartnerForm -->
<g id="node8" class="node">
<title>PartnerForm</title>
<polygon fill="#ffffb3" stroke="#000000" points="525.2577,-122 438.7423,-122 438.7423,-86 525.2577,-86 525.2577,-122"/>
<text text-anchor="middle" x="482" y="-99.8" font-family="Times,serif" font-size="14.00" fill="#000000">PartnerForm</text>
</g>
<!-- PartnerForm&#45;&gt;AppModule -->
<g id="edge8" class="edge">
<title>PartnerForm&#45;&gt;AppModule</title>
<path fill="none" stroke="#000000" d="M482,-122.0225C482,-139.3734 482,-163 482,-163 482,-163 713.2424,-163 713.2424,-163"/>
<polygon fill="#000000" stroke="#000000" points="713.2424,-166.5001 723.2424,-163 713.2423,-159.5001 713.2424,-166.5001"/>
</g>
<!-- PartnersComponent -->
<g id="node9" class="node">
<title>PartnersComponent</title>
<polygon fill="#ffffb3" stroke="#000000" points="420.7008,-122 293.2992,-122 293.2992,-86 420.7008,-86 420.7008,-122"/>
<text text-anchor="middle" x="357" y="-99.8" font-family="Times,serif" font-size="14.00" fill="#000000">PartnersComponent</text>
</g>
<!-- PartnersComponent&#45;&gt;AppModule -->
<g id="edge9" class="edge">
<title>PartnersComponent&#45;&gt;AppModule</title>
<path fill="none" stroke="#000000" d="M357,-122.1061C357,-141.3391 357,-169 357,-169 357,-169 713.2542,-169 713.2542,-169"/>
<polygon fill="#000000" stroke="#000000" points="713.2543,-172.5001 723.2542,-169 713.2542,-165.5001 713.2543,-172.5001"/>
</g>
<!-- TableComponent -->
<g id="node10" class="node">
<title>TableComponent</title>
<polygon fill="#ffffb3" stroke="#000000" points="275.705,-122 162.295,-122 162.295,-86 275.705,-86 275.705,-122"/>
<text text-anchor="middle" x="219" y="-99.8" font-family="Times,serif" font-size="14.00" fill="#000000">TableComponent</text>
</g>
<!-- TableComponent&#45;&gt;AppModule -->
<g id="edge10" class="edge">
<title>TableComponent&#45;&gt;AppModule</title>
<path fill="none" stroke="#000000" d="M219,-122.2843C219,-143.3211 219,-175 219,-175 219,-175 713.0629,-175 713.0629,-175"/>
<polygon fill="#000000" stroke="#000000" points="713.0629,-178.5001 723.0629,-175 713.0629,-171.5001 713.0629,-178.5001"/>
</g>
<!-- AppComponent  -->
<g id="node12" class="node">
<title>AppComponent </title>
<polygon fill="#80b1d3" stroke="#000000" points="819.439,-252 710.561,-252 710.561,-216 819.439,-216 819.439,-252"/>
<text text-anchor="middle" x="765" y="-229.8" font-family="Times,serif" font-size="14.00" fill="#000000">AppComponent </text>
</g>
<!-- AppModule&#45;&gt;AppComponent  -->
<g id="edge11" class="edge">
<title>AppModule&#45;&gt;AppComponent </title>
<path fill="none" stroke="#000000" stroke-dasharray="1,5" d="M765,-187.1061C765,-187.1061 765,-205.991 765,-205.991"/>
<polygon fill="#000000" stroke="#000000" points="761.5001,-205.9909 765,-215.991 768.5001,-205.991 761.5001,-205.9909"/>
</g>
<!-- PartnersApi -->
<g id="node13" class="node">
<title>PartnersApi</title>
<ellipse fill="#fdb462" stroke="#000000" cx="81" cy="-104" rx="57.3185" ry="18"/>
<text text-anchor="middle" x="81" y="-99.8" font-family="Times,serif" font-size="14.00" fill="#000000">PartnersApi</text>
</g>
<!-- PartnersApi&#45;&gt;AppModule -->
<g id="edge12" class="edge">
<title>PartnersApi&#45;&gt;AppModule</title>
<path fill="none" stroke="#000000" d="M81,-122.2479C81,-145.0179 81,-181 81,-181 81,-181 713.2424,-181 713.2424,-181"/>
<polygon fill="#000000" stroke="#000000" points="713.2424,-184.5001 723.2424,-181 713.2423,-177.5001 713.2424,-184.5001"/>
</g>
</g>
</svg>
